<svg id="Layer_1" data-name="Layer 1" xmlns="http://www.w3.org/2000/svg" viewBox="0 0 1080 1080"><defs><style>.cls-1{fill:#3d6ec6;}.cls-2{fill:#5393fb;}</style></defs><title>Untitled-1</title><path class="cls-1" d="M750.64,422.61a105.5,105.5,0,0,0-2.36-23.16c-9.2-39.1-41.29-63.51-84.26-63.87-40.66-.35-81.32-.09-122-.09-39.63,0-79.26-.13-118.94.14-8.74,0-17.72.4-26.19,2.36-38.88,9-64,41.55-64.05,83.06-.18,77.92,0,155.85,0,233.77,0,55.07,34.23,89.57,89.26,89.66q120,.21,239.88-.09c8.08,0,16.38-.4,24.24-2.18,39.54-9,64.35-41.6,64.49-84.8Q750.95,540,750.64,422.61ZM719.18,660c-.09,32-21.6,53-54,53q-62,.13-124,0-61.46,0-123,0c-32.31,0-53.78-20.79-53.87-53.11q-.46-119.9,0-239.79c.09-32.36,21.56-53,54-53.07q123.45-.06,246.94,0c32.36.05,53.78,21,53.87,53.11Q719.38,540,719.18,660Z"/><path class="cls-1" d="M943,386c-27.41-9.6-61-.67-73.33,25.35-9.37,19.68-22,20.89-38.83,19.41-1.34-.13-2.68,0-4.06,0H806.47c-14.1.09-21.51,5.67-21.37,16s7.54,15.48,21.86,15.53c13.57,0,27.14.58,40.66-.18,8.7-.49,12.68,2.19,16.2,10.58,11.34,27.22,40.3,41.81,69.94,36.77,26.73-4.6,49.27-28.87,51.63-55.61C988.07,422.92,971.16,395.79,943,386Zm-22,93.14a32.68,32.68,0,0,1,1.3-65.34,32.68,32.68,0,1,1-1.3,65.34Z"/><path class="cls-1" d="M275.6,617.82c-14.55-.18-29.14-.4-43.69.09-8,.31-12.19-1.56-15.58-9.95-11.24-27.81-40.61-42.62-70.51-37.27-26.78,4.78-49.14,29.19-51.28,55.92-2.5,31.38,15,58.56,43.78,67.84,27.67,8.93,60.79-.8,72.84-26.91,8.43-18.21,19.72-19.64,35.3-18.25,1.69.13,3.39,0,5.09,0,8.12,0,16.24.13,24.41,0,11.74-.23,18.65-5.94,18.88-15.36C295.06,624.11,287.92,618,275.6,617.82ZM157.78,666.2a32.65,32.65,0,0,1,.09-65.29,32.65,32.65,0,1,1-.09,65.29Z"/><path class="cls-1" d="M668.83,869.76c-19.23-9.38-21.37-21.6-19.5-38.7.09-1,0-2,0-3.08,0-8.12.18-16.24,0-24.36C649,792,643,785.14,633.49,785.14s-15.49,6.92-15.67,18.61c-.22,14.55-.58,29.14.14,43.69.4,8.57-1.88,12.81-10.4,16.34-27.45,11.47-41.91,40-37,69.8C575,960.31,599.3,983,626,985.39c30.88,2.77,58-14,67.93-42.17C703.6,915.77,694.76,882.39,668.83,869.76Zm-35.61,85a33,33,0,0,1-32.36-32.35,32.67,32.67,0,1,1,32.36,32.35Z"/><path class="cls-1" d="M509.33,146.22C504.64,119,480,96.41,452.74,94.54c-31.47-2.23-58.29,15.48-67.35,44.36-8.75,27.8,1.52,60.34,27.54,72.75,16.73,7.94,19.55,18.16,17.72,33.42a54.32,54.32,0,0,0,0,6.12c0,8.12-.14,16.24,0,24.37.22,12.31,6.24,19.45,16.06,19.28,9.42-.14,15.27-7.06,15.44-18.79.18-14.6.63-29.19-.17-43.7-.5-8.83,2.36-12.72,10.66-16.15C499.73,204.86,514.42,175.76,509.33,146.22Zm-63.11,44.45a32.32,32.32,0,0,1-32.44-33,32.65,32.65,0,0,1,65.29.41A32.33,32.33,0,0,1,446.22,190.67Z"/><path class="cls-1" d="M693.34,150.15C688.83,120,665.62,97,637.24,94.58c-30.93-2.63-57.67,14.06-67.66,42.31-9.82,27.67-.4,61.19,25.84,74,18.07,8.84,21.11,20.13,19,36.78a33.13,33.13,0,0,0,0,5.08v22.32c0,.67,0,1.34,0,2,.49,11.16,6.07,17.63,15.31,17.72,9.51.13,15.71-6.88,15.84-18.3.18-15.22.45-30.44-.13-45.66-.27-7.45,1.61-11.16,9.06-14.06C681.38,206.33,697.49,177.82,693.34,150.15Zm-64,40.52a32.8,32.8,0,0,1-32.31-32.36c-.13-17.85,15-33.07,32.89-33A32.7,32.7,0,0,1,662.5,158.4C662.36,176.79,647.9,190.89,629.38,190.67Z"/><path class="cls-1" d="M276.23,434.39c-14.55-.18-29.15-.53-43.65.14-8.44.4-12.81-1.61-16.29-10.27-11-27-39.68-42-68.46-37.22-28.61,4.73-51,28.25-53.29,56-2.5,30.93,14.32,57.66,42.62,67.52,27.4,9.55,60.65.67,73.19-25.39,9.33-19.42,21.65-21.25,38.7-19.51,1,.09,2,0,3,0,8.12,0,16.25.18,24.32,0,11.83-.31,18.53-6.16,18.44-15.67S287.79,434.48,276.23,434.39ZM158,482.91c-17.5-.09-32.32-14.69-32.72-32.18a32.89,32.89,0,0,1,32.45-33.25c18.48-.18,32.94,14,33,32.44A32.76,32.76,0,0,1,158,482.91Z"/><path class="cls-1" d="M933.85,566.94a63.3,63.3,0,0,0-70.74,38.47c-3,7.41-6.7,9.38-14.1,9.11-15.22-.54-30.44-.31-45.66-.09-11.74.22-18.48,6.29-18.25,15.84.17,9.38,7.23,15.27,18.83,15.36,14.91.13,29.81.49,44.67-.14,7.77-.31,11.61,1.79,14.73,9.51,11.56,28.52,41.46,43.6,72,37.49,29.15-5.85,50.44-32.36,50.35-62.84A64.06,64.06,0,0,0,933.85,566.94Zm-12,95.56a32.09,32.09,0,0,1-32.58-32.85,32.87,32.87,0,0,1,32.13-32.54c17.85-.26,33.11,14.73,33.25,32.58A32.63,32.63,0,0,1,921.89,662.5Z"/><path class="cls-1" d="M483.26,868.24c-16.78-8-19.45-18.25-17.71-33.43.22-2.36,0-4.73,0-7.09V804.37c0-.71,0-1.38-.05-2-.58-10.93-6.52-17.4-15.8-17.18s-15.17,7-15.31,17.81c-.17,14.9-.62,29.81.18,44.67.45,8.7-2.14,12.68-10.53,16.16-27.76,11.69-42.26,40.65-36.69,70.6,5.09,27.45,29.5,49.36,56.91,51.15,30.88,2,57.53-15.58,66.67-43.87C520,913.58,509.86,881,483.26,868.24Zm-32.67,86.49a32.78,32.78,0,0,1-33.15-32.53,32.35,32.35,0,0,1,32.62-32.89c18.16,0,33,14.86,32.85,32.84A33.19,33.19,0,0,1,450.59,954.73Z"/><path class="cls-2" d="M591.49,607.87q-33.6-76.11-67.39-152c-4.55-10.18-13.12-15.45-24.28-15.31-10.75.09-19.06,5.26-23.43,15q-34,75.92-67.39,152.05c-4.24,9.64-.49,18.39,8.12,22.09s16.78.41,21.51-9.37c3.62-7.63,7.1-15.35,10.09-23.25,2.23-5.89,5.71-8.12,12.18-8,26.07.35,52.13.4,78.2,0,7-.14,10.39,2.72,12.76,8.79A246.76,246.76,0,0,0,562.44,622c3.79,7.37,10.22,10.85,18.61,8.44,7.72-2.19,11.69-7.63,12.05-16.65A33.33,33.33,0,0,0,591.49,607.87ZM526.2,561H500.76c-8.79,0-17.59,0-26.42,0-6.52,0-8.44-2.72-5.71-9,8.88-20.13,17.49-40.34,26.46-60.43,1-2.18,3.48-3.66,5.27-5.49,1.78,1.83,4.24,3.35,5.22,5.58,9,20.09,17.58,40.3,26.46,60.39C534.77,558.33,532.67,561,526.2,561Z"/><path class="cls-2" d="M658.39,536.23c0,24.72.07,49.44,0,74.16,0,13.2-6.5,21-16.91,20.81-10.1-.14-16.46-7.69-16.48-20.2-.08-50.46-.31-100.92.35-151.37.08-5.73,4.08-13.25,8.69-16.49,3.75-2.64,12.68-2.17,16.51.68,4.27,3.19,7.35,10.57,7.52,16.23C658.83,485.42,658.39,510.83,658.39,536.23Z"/></svg>