<svg id="Layer_1" data-name="Layer 1" xmlns="http://www.w3.org/2000/svg" viewBox="0 0 1080 1080"><defs><style>.cls-1{fill:#5393fb;}.cls-2{fill:#3d6ec6;}</style></defs><title>Untitled-1</title><path class="cls-1" d="M213.35,599.82h-.09a22.36,22.36,0,0,1-15.84-6.69l-80.56-82.08a22.33,22.33,0,0,1,31.87-31.28l64.76,66L408.83,350.09a22.34,22.34,0,0,1,31.54-.07L628.85,537.34A22.33,22.33,0,1,1,597.37,569L424.69,397.39,229.15,593.26A22.31,22.31,0,0,1,213.35,599.82Z"/><path class="cls-2" d="M343,603.28a23,23,0,0,1-3.39,28.27l-18,18a314.77,314.77,0,0,0,50.19,47.06h0l19.42-19.47a23,23,0,0,1,26.21-4.46A268.5,268.5,0,0,1,343,603.28ZM830,288.19l-32.72,35.1a266.5,266.5,0,0,1,29.6,122.34c0,147.61-120.11,267.71-267.72,267.71a266,266,0,0,1-137.43-38c-1.43-.84-2.86-1.74-4.29-2.63A268.5,268.5,0,0,1,343,603.28c-.81-1-1.56-2-2.28-3.08a268.94,268.94,0,0,1-38.67-80.05,267,267,0,0,1-10.58-74.52c0-147.66,120.11-267.77,267.72-267.77,87.07,0,164.58,41.79,213.47,106.36l31.48-33.76c-57.42-72-145.87-118.18-244.95-118.18-172.75,0-313.31,140.55-313.31,313.35a311.17,311.17,0,0,0,20.19,110.55,306.41,306.41,0,0,0,20.13,43c2.41,4.37,5,8.66,7.68,12.9a308.06,308.06,0,0,0,27.73,37.46,314.77,314.77,0,0,0,50.19,47.06h0A322.2,322.2,0,0,0,411.63,722a311.49,311.49,0,0,0,147.57,37c172.79,0,313.35-140.55,313.35-313.3A311.44,311.44,0,0,0,830,288.19Z"/><path class="cls-2" d="M152.48,947.72a80.4,80.4,0,0,1-56.92-137.3L307,599a23,23,0,0,1,32.59,32.59L128.15,843a34.4,34.4,0,1,0,48.69,48.62L391.27,677.14a23,23,0,1,1,32.6,32.59L209.42,924.22A80.35,80.35,0,0,1,152.48,947.72Z"/><path class="cls-1" d="M613.1,575.5a22.34,22.34,0,0,1-16.32-37.56L957,151.86a22.33,22.33,0,0,1,32.65,30.46L629.43,568.4A22.28,22.28,0,0,1,613.1,575.5Z"/><path class="cls-1" d="M985.59,284.86a22.32,22.32,0,0,1-22.11-19.48L953.78,190l-85.67,2.46a22.32,22.32,0,1,1-1.28-44.63l105.87-3a22.2,22.2,0,0,1,22.79,19.47l12.27,95.43a22.32,22.32,0,0,1-19.29,25A21.65,21.65,0,0,1,985.59,284.86Z"/></svg>