<svg width="298" height="137" viewBox="0 0 298 137" fill="none" xmlns="http://www.w3.org/2000/svg">
<path d="M97.4194 131V113.545H109.181V116.588H101.11V120.747H108.576V123.79H101.11V127.957H109.215V131H97.4194ZM115.336 127.233L115.345 122.878H115.873L120.066 117.909H124.234L118.6 124.489H117.74L115.336 127.233ZM112.047 131V113.545H115.677V131H112.047ZM120.228 131L116.376 125.298L118.797 122.733L124.481 131H120.228ZM136.907 121.642L133.583 121.847C133.527 121.562 133.404 121.307 133.217 121.08C133.029 120.847 132.782 120.662 132.475 120.526C132.174 120.384 131.814 120.312 131.393 120.312C130.831 120.312 130.356 120.432 129.97 120.67C129.583 120.903 129.39 121.216 129.39 121.608C129.39 121.92 129.515 122.185 129.765 122.401C130.015 122.616 130.444 122.79 131.052 122.92L133.422 123.398C134.694 123.659 135.643 124.08 136.268 124.659C136.893 125.239 137.206 126 137.206 126.943C137.206 127.801 136.953 128.554 136.447 129.202C135.947 129.849 135.26 130.355 134.385 130.719C133.515 131.077 132.512 131.256 131.376 131.256C129.643 131.256 128.262 130.895 127.234 130.173C126.211 129.446 125.612 128.457 125.436 127.207L129.007 127.02C129.115 127.548 129.376 127.952 129.791 128.23C130.206 128.503 130.737 128.639 131.385 128.639C132.021 128.639 132.532 128.517 132.919 128.273C133.311 128.023 133.51 127.702 133.515 127.31C133.51 126.98 133.37 126.71 133.098 126.5C132.825 126.284 132.404 126.119 131.836 126.006L129.569 125.554C128.291 125.298 127.339 124.855 126.714 124.224C126.095 123.594 125.785 122.79 125.785 121.812C125.785 120.972 126.012 120.247 126.467 119.639C126.927 119.031 127.572 118.562 128.402 118.233C129.237 117.903 130.214 117.739 131.333 117.739C132.987 117.739 134.288 118.088 135.237 118.787C136.191 119.486 136.748 120.437 136.907 121.642ZM139.492 135.909V117.909H143.071V120.108H143.233C143.392 119.756 143.623 119.398 143.924 119.034C144.23 118.665 144.628 118.358 145.117 118.114C145.611 117.864 146.225 117.739 146.958 117.739C147.912 117.739 148.793 117.989 149.6 118.489C150.407 118.983 151.051 119.73 151.534 120.73C152.017 121.724 152.259 122.972 152.259 124.472C152.259 125.932 152.023 127.165 151.551 128.17C151.086 129.17 150.449 129.929 149.642 130.446C148.841 130.957 147.944 131.213 146.949 131.213C146.245 131.213 145.645 131.097 145.151 130.864C144.662 130.631 144.262 130.338 143.949 129.986C143.637 129.628 143.398 129.267 143.233 128.903H143.123V135.909H139.492ZM143.046 124.455C143.046 125.233 143.154 125.912 143.37 126.491C143.586 127.071 143.898 127.523 144.307 127.847C144.716 128.165 145.213 128.324 145.799 128.324C146.39 128.324 146.89 128.162 147.299 127.838C147.708 127.509 148.017 127.054 148.228 126.474C148.444 125.889 148.551 125.216 148.551 124.455C148.551 123.699 148.446 123.034 148.236 122.46C148.026 121.886 147.716 121.437 147.307 121.114C146.898 120.79 146.395 120.628 145.799 120.628C145.208 120.628 144.708 120.784 144.299 121.097C143.895 121.409 143.586 121.852 143.37 122.426C143.154 123 143.046 123.676 143.046 124.455ZM158.412 131.247C157.577 131.247 156.833 131.102 156.179 130.812C155.526 130.517 155.009 130.082 154.628 129.509C154.253 128.929 154.066 128.207 154.066 127.344C154.066 126.616 154.199 126.006 154.466 125.511C154.733 125.017 155.097 124.619 155.557 124.318C156.017 124.017 156.54 123.79 157.125 123.636C157.716 123.483 158.336 123.375 158.983 123.312C159.745 123.233 160.358 123.159 160.824 123.091C161.29 123.017 161.628 122.909 161.838 122.767C162.049 122.625 162.154 122.415 162.154 122.136V122.085C162.154 121.545 161.983 121.128 161.642 120.832C161.307 120.537 160.83 120.389 160.211 120.389C159.557 120.389 159.037 120.534 158.651 120.824C158.265 121.108 158.009 121.466 157.884 121.898L154.526 121.625C154.696 120.83 155.032 120.142 155.532 119.562C156.032 118.977 156.676 118.528 157.466 118.216C158.262 117.898 159.182 117.739 160.228 117.739C160.955 117.739 161.651 117.824 162.316 117.994C162.986 118.165 163.58 118.429 164.097 118.787C164.62 119.145 165.032 119.605 165.333 120.168C165.634 120.724 165.784 121.392 165.784 122.17V131H162.341V129.185H162.239C162.029 129.594 161.748 129.955 161.395 130.267C161.043 130.574 160.62 130.815 160.125 130.991C159.631 131.162 159.06 131.247 158.412 131.247ZM159.452 128.741C159.986 128.741 160.458 128.636 160.867 128.426C161.276 128.21 161.597 127.92 161.83 127.557C162.063 127.193 162.179 126.781 162.179 126.321V124.932C162.066 125.006 161.909 125.074 161.711 125.136C161.517 125.193 161.299 125.247 161.054 125.298C160.81 125.344 160.566 125.386 160.321 125.426C160.077 125.46 159.855 125.491 159.657 125.52C159.23 125.582 158.858 125.682 158.54 125.818C158.222 125.955 157.975 126.139 157.799 126.372C157.623 126.599 157.534 126.884 157.534 127.224C157.534 127.719 157.713 128.097 158.071 128.358C158.435 128.614 158.895 128.741 159.452 128.741ZM172.232 123.432V131H168.601V117.909H172.061V120.219H172.215C172.505 119.457 172.99 118.855 173.672 118.412C174.354 117.963 175.181 117.739 176.152 117.739C177.061 117.739 177.854 117.938 178.53 118.335C179.206 118.733 179.732 119.301 180.107 120.04C180.482 120.773 180.669 121.648 180.669 122.665V131H177.039V123.312C177.044 122.511 176.84 121.886 176.425 121.438C176.01 120.983 175.439 120.756 174.712 120.756C174.223 120.756 173.792 120.861 173.417 121.071C173.047 121.281 172.757 121.588 172.547 121.991C172.343 122.389 172.238 122.869 172.232 123.432ZM194.423 121.642L191.099 121.847C191.042 121.562 190.92 121.307 190.733 121.08C190.545 120.847 190.298 120.662 189.991 120.526C189.69 120.384 189.329 120.312 188.909 120.312C188.346 120.312 187.872 120.432 187.485 120.67C187.099 120.903 186.906 121.216 186.906 121.608C186.906 121.92 187.031 122.185 187.281 122.401C187.531 122.616 187.96 122.79 188.568 122.92L190.937 123.398C192.21 123.659 193.159 124.08 193.784 124.659C194.409 125.239 194.721 126 194.721 126.943C194.721 127.801 194.468 128.554 193.963 129.202C193.463 129.849 192.775 130.355 191.9 130.719C191.031 131.077 190.028 131.256 188.892 131.256C187.159 131.256 185.778 130.895 184.75 130.173C183.727 129.446 183.127 128.457 182.951 127.207L186.522 127.02C186.63 127.548 186.892 127.952 187.306 128.23C187.721 128.503 188.252 128.639 188.9 128.639C189.537 128.639 190.048 128.517 190.434 128.273C190.826 128.023 191.025 127.702 191.031 127.31C191.025 126.98 190.886 126.71 190.613 126.5C190.341 126.284 189.92 126.119 189.352 126.006L187.085 125.554C185.806 125.298 184.855 124.855 184.23 124.224C183.61 123.594 183.301 122.79 183.301 121.812C183.301 120.972 183.528 120.247 183.983 119.639C184.443 119.031 185.088 118.562 185.917 118.233C186.752 117.903 187.73 117.739 188.849 117.739C190.502 117.739 191.804 118.088 192.752 118.787C193.707 119.486 194.264 120.437 194.423 121.642ZM197.007 131V117.909H200.638V131H197.007ZM198.831 116.222C198.292 116.222 197.828 116.043 197.442 115.685C197.061 115.321 196.871 114.886 196.871 114.381C196.871 113.881 197.061 113.452 197.442 113.094C197.828 112.73 198.292 112.548 198.831 112.548C199.371 112.548 199.831 112.73 200.212 113.094C200.598 113.452 200.792 113.881 200.792 114.381C200.792 114.886 200.598 115.321 200.212 115.685C199.831 116.043 199.371 116.222 198.831 116.222Z" fill="#333333"/>
<rect x="99" width="100" height="100" rx="50" fill="#E8F3FF"/>
<path d="M157 74V59.6C157 58.1064 157 57.3597 156.709 56.7893C156.454 56.2875 156.046 55.8797 155.544 55.624C154.974 55.3333 154.227 55.3333 152.733 55.3333H145.267C143.773 55.3333 143.026 55.3333 142.456 55.624C141.954 55.8797 141.546 56.2875 141.291 56.7893C141 57.3597 141 58.1064 141 59.6V74M167.667 74V34.5333C167.667 31.5464 167.667 30.0529 167.085 28.9121C166.574 27.9085 165.758 27.0926 164.755 26.5813C163.614 26 162.12 26 159.133 26H138.867C135.88 26 134.386 26 133.245 26.5813C132.242 27.0926 131.426 27.9085 130.915 28.9121C130.333 30.0529 130.333 31.5464 130.333 34.5333V74M173 74H125M142.333 39.3333H142.36M155.667 39.3333H155.693M143.667 39.3333C143.667 40.0697 143.07 40.6667 142.333 40.6667C141.597 40.6667 141 40.0697 141 39.3333C141 38.597 141.597 38 142.333 38C143.07 38 143.667 38.597 143.667 39.3333ZM157 39.3333C157 40.0697 156.403 40.6667 155.667 40.6667C154.93 40.6667 154.333 40.0697 154.333 39.3333C154.333 38.597 154.93 38 155.667 38C156.403 38 157 38.597 157 39.3333Z" stroke="#333333" stroke-width="4" stroke-linecap="round" stroke-linejoin="round"/>
</svg>
