<svg width="80" height="80" viewBox="0 0 80 80" fill="none" xmlns="http://www.w3.org/2000/svg">
<path fill-rule="evenodd" clip-rule="evenodd" d="M20.8334 11.6666C11.6667 11.6666 11.6667 12.36 11.6667 20.8333V20.9166C11.6667 24.6066 11.6667 27.2733 12.57 28.4C13.4534 29.4933 16.0767 30 20.8334 30C25.59 30 28.2134 29.49 29.0967 28.3966C30 27.2733 30 24.6066 30 20.9133C30 12.36 30 11.6666 20.8334 11.6666ZM20.8334 35C15.2134 35 10.9967 34.41 8.68002 31.5333C6.66669 29.0366 6.66669 25.63 6.66669 20.9166L9.16669 20.8333H6.66669C6.66669 11.2666 7.27002 6.66663 20.8334 6.66663C34.3967 6.66663 35 11.2666 35 20.8333C35 25.6266 35 29.0366 32.9867 31.5333C30.67 34.41 26.4534 35 20.8334 35Z" fill="#3D6EC6"/>
<path fill-rule="evenodd" clip-rule="evenodd" d="M57.5 11.6666C48.3334 11.6666 48.3334 12.36 48.3334 20.8333V20.9166C48.3334 24.6066 48.3334 27.2733 49.2367 28.4C50.12 29.4933 52.7434 30 57.5 30C62.2567 30 64.88 29.49 65.7634 28.3966C66.6667 27.2733 66.6667 24.6066 66.6667 20.9133C66.6667 12.36 66.6667 11.6666 57.5 11.6666ZM57.5 35C51.88 35 47.6634 34.41 45.3467 31.5333C43.3334 29.0366 43.3334 25.63 43.3334 20.9166L45.8334 20.8333H43.3334C43.3334 11.2666 43.9367 6.66663 57.5 6.66663C71.0634 6.66663 71.6667 11.2666 71.6667 20.8333C71.6667 25.6266 71.6667 29.0366 69.6534 31.5333C67.3367 34.41 63.12 35 57.5 35Z" fill="#3D6EC6"/>
<path fill-rule="evenodd" clip-rule="evenodd" d="M20.8334 48.3333C11.6667 48.3333 11.6667 49.0266 11.6667 57.4999V57.5833C11.6667 61.2733 11.6667 63.9399 12.57 65.0666C13.4534 66.1599 16.0767 66.6666 20.8334 66.6666C25.59 66.6666 28.2134 66.1566 29.0967 65.0632C30 63.9399 30 61.2733 30 57.5799C30 49.0266 30 48.3333 20.8334 48.3333ZM20.8334 71.6666C15.2134 71.6666 10.9967 71.0766 8.68002 68.1999C6.66669 65.7032 6.66669 62.2966 6.66669 57.5833L9.16669 57.4999H6.66669C6.66669 47.9333 7.27002 43.3333 20.8334 43.3333C34.3967 43.3333 35 47.9333 35 57.4999C35 62.2933 35 65.7032 32.9867 68.1999C30.67 71.0766 26.4534 71.6666 20.8334 71.6666Z" fill="#3D6EC6"/>
<path fill-rule="evenodd" clip-rule="evenodd" d="M57.5 48.3333C48.3334 48.3333 48.3334 49.0266 48.3334 57.4999V57.5833C48.3334 61.2733 48.3334 63.9399 49.2367 65.0666C50.12 66.1599 52.7434 66.6666 57.5 66.6666C62.2567 66.6666 64.88 66.1566 65.7634 65.0632C66.6667 63.9399 66.6667 61.2733 66.6667 57.5799C66.6667 49.0266 66.6667 48.3333 57.5 48.3333ZM57.5 71.6666C51.88 71.6666 47.6634 71.0766 45.3467 68.1999C43.3334 65.7032 43.3334 62.2966 43.3334 57.5833L45.8334 57.4999H43.3334C43.3334 47.9333 43.9367 43.3333 57.5 43.3333C71.0634 43.3333 71.6667 47.9333 71.6667 57.4999C71.6667 62.2933 71.6667 65.7032 69.6534 68.1999C67.3367 71.0766 63.12 71.6666 57.5 71.6666Z" fill="#3D6EC6"/>
</svg>
