<svg width="80" height="80" viewBox="0 0 80 80" fill="none" xmlns="http://www.w3.org/2000/svg">
<path fill-rule="evenodd" clip-rule="evenodd" d="M24.0543 53.343C23.521 53.343 22.9843 53.173 22.531 52.8263C21.4376 51.983 21.231 50.413 22.0743 49.3197L32.051 36.353C32.4576 35.823 33.061 35.4797 33.721 35.3963C34.3943 35.3097 35.0543 35.4963 35.5777 35.913L44.9777 43.2963L53.201 32.6862C54.0477 31.5896 55.6143 31.3862 56.7077 32.2396C57.801 33.0862 58.001 34.6563 57.1543 35.7463L47.3877 48.3463C46.981 48.873 46.381 49.2163 45.721 49.2963C45.0543 49.3863 44.3943 49.193 43.8677 48.783L34.4743 41.403L26.0376 52.3663C25.5443 53.0063 24.8043 53.343 24.0543 53.343Z" fill="#3D6EC6"/>
<mask id="mask0_1_283" style="mask-type:luminance" maskUnits="userSpaceOnUse" x="57" y="6" width="19" height="19">
<path fill-rule="evenodd" clip-rule="evenodd" d="M57.6514 6.66699H75.4647V24.4833H57.6514V6.66699Z" fill="white"/>
</mask>
<g mask="url(#mask0_1_283)">
<path fill-rule="evenodd" clip-rule="evenodd" d="M66.558 11.667C64.4047 11.667 62.6514 13.417 62.6514 15.5737C62.6514 17.727 64.4047 19.4837 66.558 19.4837C68.7114 19.4837 70.4647 17.727 70.4647 15.5737C70.4647 13.417 68.7114 11.667 66.558 11.667ZM66.558 24.4837C61.648 24.4837 57.6514 20.487 57.6514 15.5737C57.6514 10.6603 61.648 6.66699 66.558 6.66699C71.4714 6.66699 75.4647 10.6603 75.4647 15.5737C75.4647 20.487 71.4714 24.4837 66.558 24.4837Z" fill="#3D6EC6"/>
</g>
<mask id="mask1_1_283" style="mask-type:luminance" maskUnits="userSpaceOnUse" x="6" y="9" width="67" height="67">
<path fill-rule="evenodd" clip-rule="evenodd" d="M6.66669 9.47388H72.873V75.6773H6.66669V9.47388Z" fill="white"/>
</mask>
<g mask="url(#mask1_1_283)">
<path fill-rule="evenodd" clip-rule="evenodd" d="M54.11 75.6773H25.43C14.2067 75.6773 6.66669 67.794 6.66669 56.0607V29.1205C6.66669 17.3705 14.2067 9.47388 25.43 9.47388H49.6567C51.0367 9.47388 52.1567 10.5939 52.1567 11.9739C52.1567 13.3539 51.0367 14.4739 49.6567 14.4739H25.43C17.07 14.4739 11.6667 20.2205 11.6667 29.1205V56.0607C11.6667 65.0773 16.94 70.6773 25.43 70.6773H54.11C62.47 70.6773 67.8734 64.9407 67.8734 56.0607V32.5972C67.8734 31.2172 68.9934 30.0972 70.3734 30.0972C71.7533 30.0972 72.8734 31.2172 72.8734 32.5972V56.0607C72.8734 67.794 65.3334 75.6773 54.11 75.6773Z" fill="#3D6EC6"/>
</g>
</svg>
