<svg width="298" height="137" viewBox="0 0 298 137" fill="none" xmlns="http://www.w3.org/2000/svg">
<path d="M78.6577 131V113.545H85.544C86.8679 113.545 87.9957 113.798 88.9276 114.304C89.8594 114.804 90.5696 115.5 91.0582 116.392C91.5526 117.278 91.7997 118.301 91.7997 119.46C91.7997 120.619 91.5497 121.642 91.0497 122.528C90.5497 123.415 89.8253 124.105 88.8764 124.599C87.9332 125.094 86.7912 125.341 85.4503 125.341H81.0611V122.384H84.8537C85.5639 122.384 86.1491 122.261 86.6094 122.017C87.0753 121.767 87.4219 121.423 87.6491 120.986C87.8821 120.543 87.9986 120.034 87.9986 119.46C87.9986 118.881 87.8821 118.375 87.6491 117.943C87.4219 117.506 87.0753 117.168 86.6094 116.929C86.1435 116.685 85.5526 116.562 84.8366 116.562H82.348V131H78.6577ZM94.1286 131V117.909H97.6484V120.193H97.7848C98.0234 119.381 98.424 118.767 98.9865 118.352C99.549 117.932 100.197 117.722 100.93 117.722C101.112 117.722 101.308 117.733 101.518 117.756C101.728 117.778 101.913 117.81 102.072 117.849V121.071C101.901 121.02 101.665 120.974 101.364 120.935C101.063 120.895 100.788 120.875 100.538 120.875C100.004 120.875 99.5263 120.991 99.1058 121.224C98.6911 121.452 98.3615 121.77 98.1172 122.179C97.8786 122.588 97.7592 123.06 97.7592 123.594V131H94.1286ZM109.254 131.256C107.93 131.256 106.786 130.974 105.82 130.412C104.859 129.844 104.118 129.054 103.595 128.043C103.072 127.026 102.811 125.847 102.811 124.506C102.811 123.153 103.072 121.972 103.595 120.96C104.118 119.943 104.859 119.153 105.82 118.591C106.786 118.023 107.93 117.739 109.254 117.739C110.578 117.739 111.72 118.023 112.68 118.591C113.646 119.153 114.391 119.943 114.913 120.96C115.436 121.972 115.697 123.153 115.697 124.506C115.697 125.847 115.436 127.026 114.913 128.043C114.391 129.054 113.646 129.844 112.68 130.412C111.72 130.974 110.578 131.256 109.254 131.256ZM109.271 128.443C109.874 128.443 110.376 128.273 110.78 127.932C111.183 127.585 111.487 127.114 111.692 126.517C111.902 125.92 112.007 125.241 112.007 124.48C112.007 123.719 111.902 123.04 111.692 122.443C111.487 121.847 111.183 121.375 110.78 121.028C110.376 120.682 109.874 120.509 109.271 120.509C108.663 120.509 108.152 120.682 107.737 121.028C107.328 121.375 107.018 121.847 106.808 122.443C106.604 123.04 106.501 123.719 106.501 124.48C106.501 125.241 106.604 125.92 106.808 126.517C107.018 127.114 107.328 127.585 107.737 127.932C108.152 128.273 108.663 128.443 109.271 128.443ZM122.882 131.213C121.888 131.213 120.987 130.957 120.18 130.446C119.379 129.929 118.743 129.17 118.271 128.17C117.805 127.165 117.572 125.932 117.572 124.472C117.572 122.972 117.814 121.724 118.297 120.73C118.78 119.73 119.422 118.983 120.223 118.489C121.03 117.989 121.913 117.739 122.874 117.739C123.607 117.739 124.217 117.864 124.706 118.114C125.2 118.358 125.598 118.665 125.899 119.034C126.206 119.398 126.439 119.756 126.598 120.108H126.709V113.545H130.331V131H126.751V128.903H126.598C126.428 129.267 126.186 129.628 125.874 129.986C125.567 130.338 125.166 130.631 124.672 130.864C124.183 131.097 123.587 131.213 122.882 131.213ZM124.033 128.324C124.618 128.324 125.112 128.165 125.516 127.847C125.925 127.523 126.237 127.071 126.453 126.491C126.675 125.912 126.786 125.233 126.786 124.455C126.786 123.676 126.678 123 126.462 122.426C126.246 121.852 125.933 121.409 125.524 121.097C125.115 120.784 124.618 120.628 124.033 120.628C123.436 120.628 122.933 120.79 122.524 121.114C122.115 121.437 121.805 121.886 121.595 122.46C121.385 123.034 121.28 123.699 121.28 124.455C121.28 125.216 121.385 125.889 121.595 126.474C121.811 127.054 122.121 127.509 122.524 127.838C122.933 128.162 123.436 128.324 124.033 128.324ZM141.711 125.426V117.909H145.342V131H141.856V128.622H141.719C141.424 129.389 140.933 130.006 140.245 130.472C139.563 130.937 138.731 131.17 137.748 131.17C136.873 131.17 136.103 130.972 135.438 130.574C134.773 130.176 134.254 129.611 133.879 128.878C133.509 128.145 133.322 127.267 133.316 126.244V117.909H136.947V125.597C136.952 126.369 137.16 126.98 137.569 127.429C137.978 127.878 138.526 128.102 139.214 128.102C139.651 128.102 140.06 128.003 140.441 127.804C140.822 127.599 141.129 127.298 141.362 126.901C141.6 126.503 141.717 126.011 141.711 125.426ZM151.536 127.233L151.544 122.878H152.072L156.266 117.909H160.433L154.8 124.489H153.939L151.536 127.233ZM148.246 131V113.545H151.876V131H148.246ZM156.428 131L152.575 125.298L154.996 122.733L160.68 131H156.428ZM167.837 131V113.545H174.826C176.11 113.545 177.181 113.736 178.039 114.116C178.897 114.497 179.542 115.026 179.974 115.702C180.406 116.372 180.621 117.145 180.621 118.02C180.621 118.702 180.485 119.301 180.212 119.818C179.94 120.33 179.565 120.75 179.087 121.08C178.616 121.403 178.076 121.634 177.468 121.77V121.94C178.133 121.969 178.755 122.156 179.335 122.503C179.92 122.849 180.394 123.335 180.758 123.96C181.121 124.58 181.303 125.318 181.303 126.176C181.303 127.102 181.073 127.929 180.613 128.656C180.158 129.378 179.485 129.949 178.593 130.369C177.701 130.79 176.602 131 175.295 131H167.837ZM171.528 127.983H174.536C175.565 127.983 176.315 127.787 176.786 127.395C177.258 126.997 177.494 126.469 177.494 125.81C177.494 125.327 177.377 124.901 177.144 124.531C176.911 124.162 176.579 123.872 176.147 123.662C175.721 123.452 175.212 123.347 174.621 123.347H171.528V127.983ZM171.528 120.849H174.263C174.769 120.849 175.218 120.761 175.61 120.585C176.008 120.403 176.32 120.148 176.548 119.818C176.781 119.489 176.897 119.094 176.897 118.634C176.897 118.003 176.673 117.494 176.224 117.108C175.781 116.722 175.15 116.528 174.332 116.528H171.528V120.849ZM187.369 131.247C186.534 131.247 185.79 131.102 185.136 130.812C184.483 130.517 183.966 130.082 183.585 129.509C183.21 128.929 183.023 128.207 183.023 127.344C183.023 126.616 183.156 126.006 183.423 125.511C183.69 125.017 184.054 124.619 184.514 124.318C184.974 124.017 185.497 123.79 186.082 123.636C186.673 123.483 187.293 123.375 187.94 123.312C188.702 123.233 189.315 123.159 189.781 123.091C190.247 123.017 190.585 122.909 190.795 122.767C191.006 122.625 191.111 122.415 191.111 122.136V122.085C191.111 121.545 190.94 121.128 190.599 120.832C190.264 120.537 189.787 120.389 189.168 120.389C188.514 120.389 187.994 120.534 187.608 120.824C187.222 121.108 186.966 121.466 186.841 121.898L183.483 121.625C183.653 120.83 183.989 120.142 184.489 119.562C184.989 118.977 185.634 118.528 186.423 118.216C187.219 117.898 188.139 117.739 189.185 117.739C189.912 117.739 190.608 117.824 191.273 117.994C191.943 118.165 192.537 118.429 193.054 118.787C193.577 119.145 193.989 119.605 194.29 120.168C194.591 120.724 194.741 121.392 194.741 122.17V131H191.298V129.185H191.196C190.986 129.594 190.705 129.955 190.352 130.267C190 130.574 189.577 130.815 189.082 130.991C188.588 131.162 188.017 131.247 187.369 131.247ZM188.409 128.741C188.943 128.741 189.415 128.636 189.824 128.426C190.233 128.21 190.554 127.92 190.787 127.557C191.02 127.193 191.136 126.781 191.136 126.321V124.932C191.023 125.006 190.866 125.074 190.668 125.136C190.474 125.193 190.256 125.247 190.011 125.298C189.767 125.344 189.523 125.386 189.278 125.426C189.034 125.46 188.812 125.491 188.614 125.52C188.188 125.582 187.815 125.682 187.497 125.818C187.179 125.955 186.932 126.139 186.756 126.372C186.58 126.599 186.491 126.884 186.491 127.224C186.491 127.719 186.67 128.097 187.028 128.358C187.392 128.614 187.852 128.741 188.409 128.741ZM197.558 131V117.909H201.078V120.193H201.214C201.453 119.381 201.854 118.767 202.416 118.352C202.979 117.932 203.626 117.722 204.359 117.722C204.541 117.722 204.737 117.733 204.947 117.756C205.158 117.778 205.342 117.81 205.501 117.849V121.071C205.331 121.02 205.095 120.974 204.794 120.935C204.493 120.895 204.217 120.875 203.967 120.875C203.433 120.875 202.956 120.991 202.536 121.224C202.121 121.452 201.791 121.77 201.547 122.179C201.308 122.588 201.189 123.06 201.189 123.594V131H197.558ZM215.773 125.426V117.909H219.404V131H215.918V128.622H215.782C215.487 129.389 214.995 130.006 214.308 130.472C213.626 130.937 212.793 131.17 211.81 131.17C210.935 131.17 210.165 130.972 209.501 130.574C208.836 130.176 208.316 129.611 207.941 128.878C207.572 128.145 207.384 127.267 207.379 126.244V117.909H211.009V125.597C211.015 126.369 211.222 126.98 211.631 127.429C212.04 127.878 212.589 128.102 213.276 128.102C213.714 128.102 214.123 128.003 214.504 127.804C214.884 127.599 215.191 127.298 215.424 126.901C215.663 126.503 215.779 126.011 215.773 125.426Z" fill="#333333"/>
<rect x="99" width="100" height="100" rx="50" fill="#E8F3FF"/>
<path d="M157 74V59.6C157 58.1064 157 57.3597 156.709 56.7893C156.454 56.2875 156.046 55.8797 155.544 55.624C154.974 55.3333 154.227 55.3333 152.733 55.3333H145.267C143.773 55.3333 143.026 55.3333 142.456 55.624C141.954 55.8797 141.546 56.2875 141.291 56.7893C141 57.3597 141 58.1064 141 59.6V74M167.667 74V34.5333C167.667 31.5464 167.667 30.0529 167.085 28.9121C166.574 27.9085 165.758 27.0926 164.755 26.5813C163.614 26 162.12 26 159.133 26H138.867C135.88 26 134.386 26 133.245 26.5813C132.242 27.0926 131.426 27.9085 130.915 28.9121C130.333 30.0529 130.333 31.5464 130.333 34.5333V74M173 74H125M142.333 39.3333H142.36M155.667 39.3333H155.693M143.667 39.3333C143.667 40.0697 143.07 40.6667 142.333 40.6667C141.597 40.6667 141 40.0697 141 39.3333C141 38.597 141.597 38 142.333 38C143.07 38 143.667 38.597 143.667 39.3333ZM157 39.3333C157 40.0697 156.403 40.6667 155.667 40.6667C154.93 40.6667 154.333 40.0697 154.333 39.3333C154.333 38.597 154.93 38 155.667 38C156.403 38 157 38.597 157 39.3333Z" stroke="#333333" stroke-width="4" stroke-linecap="round" stroke-linejoin="round"/>
</svg>
