<svg width="68" height="68" viewBox="0 0 68 68" fill="none" xmlns="http://www.w3.org/2000/svg">
<path d="M33.9983 34.0003H34.0317M45.7833 45.7857C30.1627 61.4067 12.2228 68.7933 5.71411 62.2847C-0.794619 55.776 6.59231 37.8363 22.2133 22.2154C37.8343 6.5944 55.774 -0.792535 62.2827 5.7162C68.7913 12.2249 61.4043 30.1647 45.7833 45.7857ZM45.7833 22.2148C61.4043 37.8357 68.7913 55.7753 62.2827 62.284C55.7737 68.793 37.834 61.406 22.2131 45.785C6.59218 30.164 -0.794753 12.2243 5.71398 5.7156C12.2227 -0.793135 30.1623 6.5938 45.7833 22.2148ZM35.665 34.0003C35.665 34.921 34.919 35.667 33.9983 35.667C33.078 35.667 32.3317 34.921 32.3317 34.0003C32.3317 33.08 33.078 32.3337 33.9983 32.3337C34.919 32.3337 35.665 33.08 35.665 34.0003Z" stroke="#3D6EC6" stroke-width="5" stroke-linecap="round" stroke-linejoin="round"/>
</svg>
