<svg width="68" height="65" viewBox="0 0 68 65" fill="none" xmlns="http://www.w3.org/2000/svg">
<mask id="mask0_169_52" style="mask-type:luminance" maskUnits="userSpaceOnUse" x="0" y="40" width="52" height="25">
<path fill-rule="evenodd" clip-rule="evenodd" d="M0.666656 40.5233H51.2793V64.1887H0.666656V40.5233Z" fill="white"/>
</mask>
<g mask="url(#mask0_169_52)">
<path fill-rule="evenodd" clip-rule="evenodd" d="M25.9725 45.5233C16.7092 45.5233 5.66586 46.7133 5.66586 52.3966C5.66586 56.9033 12.4992 59.19 25.9725 59.19C39.446 59.19 46.2793 56.88 46.2793 52.33C46.2793 47.8133 39.446 45.5233 25.9725 45.5233ZM25.9725 64.19C19.0525 64.19 0.665863 64.19 0.665863 52.3966C0.665863 40.5233 19.7125 40.5233 25.9725 40.5233C36.836 40.5233 51.2793 41.7467 51.2793 52.33C51.2793 64.19 32.2327 64.19 25.9725 64.19Z" fill="#3D6EC6"/>
</g>
<path fill-rule="evenodd" clip-rule="evenodd" d="M25.9727 5.66663C19.2894 5.66663 13.8527 11.1033 13.8527 17.7833C13.8527 24.4633 19.2894 29.9 25.9727 29.9H26.076C29.2893 29.8866 32.316 28.6233 34.586 26.3333C36.8593 24.05 38.1027 21.0133 38.0893 17.7933C38.0893 11.1033 32.6527 5.66663 25.9727 5.66663ZM25.9727 34.9C16.5327 34.9 8.85269 27.22 8.85269 17.7833C8.85269 8.34663 16.5327 0.666626 25.9727 0.666626C35.4093 0.666626 43.0893 8.34663 43.0893 17.7833C43.1093 22.33 41.346 26.6233 38.1327 29.8566C34.926 33.0933 30.6427 34.8833 26.086 34.9H25.9727Z" fill="#3D6EC6"/>
<path fill-rule="evenodd" clip-rule="evenodd" d="M48.9413 31.106C47.7147 31.106 46.6447 30.2027 46.468 28.9527C46.278 27.586 47.228 26.3192 48.5947 26.1292C52.7547 25.5459 55.8947 21.9359 55.9013 17.7292C55.9013 13.5492 52.908 10.0226 48.7913 9.34922C47.428 9.12255 46.5047 7.83922 46.728 6.47589C46.9513 5.11255 48.2413 4.19589 49.598 4.41255C56.148 5.48589 60.9013 11.0892 60.9013 17.7326C60.888 24.4159 55.898 30.156 49.2913 31.0827C49.1747 31.0993 49.058 31.106 48.9413 31.106Z" fill="#3D6EC6"/>
<mask id="mask1_169_52" style="mask-type:luminance" maskUnits="userSpaceOnUse" x="53" y="38" width="15" height="18">
<path fill-rule="evenodd" clip-rule="evenodd" d="M53.484 38.9446H67.2633V55.5362H53.484V38.9446Z" fill="white"/>
</mask>
<g mask="url(#mask1_169_52)">
<path fill-rule="evenodd" clip-rule="evenodd" d="M60.3182 55.5363C59.3082 55.5363 58.3582 54.9197 57.9816 53.923C57.4916 52.633 58.1416 51.1863 59.4316 50.6997C62.2649 49.6263 62.2649 48.3163 62.2649 47.7563C62.2649 45.8663 60.0282 44.573 55.6182 43.9163C54.2516 43.7097 53.3082 42.4363 53.5116 41.073C53.7182 39.7063 55.0149 38.7897 56.3549 38.9663C65.3749 40.3163 67.2649 44.493 67.2649 47.7563C67.2649 50.1863 66.2149 53.4763 61.2049 55.373C60.9149 55.483 60.6149 55.5363 60.3182 55.5363Z" fill="#3D6EC6"/>
</g>
</svg>
