<svg id="Layer_1" data-name="Layer 1" xmlns="http://www.w3.org/2000/svg" viewBox="0 0 1080 1080"><defs><style>.cls-1{fill:#3d6ec6;}.cls-2{fill:#5393fb;}</style></defs><title>Untitled-1</title><path class="cls-1" d="M886.67,289.46c-86.47-.26-173-.09-259.5,0-15.4,0-20.22,5-20.22,20.74q-.08,39,0,77.93c0,16,3.2,19.46,18.85,21.08,33.15,3.45,55.67,32.29,50.47,64.63C672,500.19,652,517.9,623,520.76c-11.26,1.15-15.74,5.8-16,17-.21,7.29-.09,14.59-.09,21.84v40H547.18c-.64-1.87-1-3.07-1.36-4.26-12-40.79-44-66.25-83.53-66.43-39.21-.17-71.46,24.62-83.62,64.85-1.66,5.5-4.43,6.48-9.42,6.4-20.56-.17-41.17-.13-61.77,0-16.22,0-21,4.78-21,21q-.08,128.82,0,257.62c0,43.73,28.37,71.93,72.05,72H885.17c43.94,0,72.14-28.07,72.14-71.75q.06-259,0-518.1C957.31,318.21,929.24,289.54,886.67,289.46ZM606.39,920.27H595.77q-118.32,0-236.63,0c-27.69,0-42.24-14.46-42.24-42.14q-.06-118.32,0-236.64V630.52h18.43c17.41,0,34.81.13,52.26-.08,13.05-.18,17.41-4.53,18.47-17.67,2.52-30.46,25.85-53,55.29-53.32,29.69-.38,53.62,22.14,56.4,53.15,1.19,13.57,5.54,17.75,19.28,17.88,20.6.13,41.21.21,61.81-.09,6.06-.08,8.41,1.71,8.19,8.07-.38,14.24-.51,28.53,0,42.78.3,7-2.17,9.47-8.87,11.39-61.94,18.09-83,93.85-39.46,141.21,12.84,14,28.92,22.27,47.65,26.49Zm320.5-42.83q0,42.79-42.36,42.78-117.85.07-235.69,0H637.36c0-23.72,0-45.86,0-68,0-15.78-4.05-20-19.92-21.28-28.2-2.31-50.3-25.69-51.28-54.27-1-27.64,19.75-52.17,47.7-56.35,2.21-.34,4.39-.64,6.61-.9,12.24-1.36,16.72-6,16.85-18.38.21-16.77,0-33.58.08-50.38,0-3.08.26-6.19.47-10.41,18.77,0,37-.22,55.29.34,2,0,4.73,4.22,5.59,7,11.52,38.91,45.73,64.42,85.7,63.57,37.33-.81,69.54-25.73,80.33-62.8,1.83-6.27,4.22-8.53,10.88-8.32,16.72.52,33.44.17,51.27.17Zm0-277.38h-16.5c-18,0-36.09-.13-54.14.09-12.76.12-17.66,5-18.64,17.66-1.88,24-16.55,42.87-38.86,49.91-21.93,6.91-45.86.51-59.6-18.22-6.06-8.27-10.07-19-12-29.22-3.37-17-5.72-20.18-23.38-20.18-18.34,0-36.73,0-55.07,0h-10.8V550.49c44.8-13.22,70.69-41.93,70-90.05-.55-38.23-24.44-64.93-70-81.06V319.79H648.5q117.36,0,234.71,0c29.74,0,43.68,13.91,43.68,43.43Z"/><path class="cls-2" d="M463.35,221.84c-6.1-1.75-7.85-4.27-7.72-10.37.34-21.5.26-43,.09-64.58-.13-11.56-5.55-17.37-16.72-17.37-89.63-.12-179.3-.47-268.93.17-35.79.3-64.42,29.87-64.55,65.57-.38,89-.17,178-.12,267.05,0,11.9,5.46,17.54,17.4,17.62q42.3.31,84.6,0C219,479.85,224,474.77,225,463.25c2.78-31.18,25-52.9,54.78-53.54,29.35-.59,52.73,20.86,56.35,51.88C337.85,476.31,341.9,480,357,480q39.42.06,78.88,0c15.19-.09,19.84-4.78,19.88-19.93,0-23.12,0-46.24,0-69.49,2.48-.94,4.48-1.83,6.57-2.43C501.11,377,526.62,344.4,527,305.32,527.47,266.72,502,232.93,463.35,221.84ZM447.27,360c-20,2.86-21.93,5.16-21.93,25.43v64.07c-19.19,0-37.75.3-56.26-.34-2-.08-4.48-5.16-5.55-8.32-11.73-33.78-34.68-55.16-70.22-60.28-36.68-5.33-65.74,8.83-86,39.85-4.56,7-6.61,15.65-10.41,23.25-1.24,2.47-4.31,5.63-6.65,5.67-17.71.47-35.41.26-54.48.26V438.89q0-118.75,0-237.57c0-27,14.55-41.47,41.77-41.47H424.75c.21,3.76.55,7.09.55,10.41.09,19.63,0,39.25.09,58.92,0,14.08,4.65,18.9,18.34,20,28.88,2.18,51,25,51.88,53.37C496.54,332,476.58,355.75,447.27,360Z"/></svg>