<svg width="71" height="71" viewBox="0 0 71 71" fill="none" xmlns="http://www.w3.org/2000/svg">
<path d="M56 18.9412V53.0589C56 53.8389 55.6902 54.5869 55.1384 55.1384C54.5869 55.6902 53.8389 56 53.0589 56H18.9412C18.1611 56 17.413 55.6902 16.8614 55.1384C16.3099 54.5869 16 53.8389 16 53.0589V18.9412C16 18.1611 16.3099 17.413 16.8614 16.8614C17.413 16.3099 18.1611 16 18.9412 16H53.0589C53.8389 16 54.5869 16.3099 55.1384 16.8614C55.6902 17.413 56 18.1611 56 18.9412ZM27.7647 31.2941H21.8824V50.1176H27.7647V31.2941ZM28.2941 24.8235C28.2972 24.3786 28.2126 23.9374 28.0453 23.5251C27.8778 23.1128 27.6309 22.7376 27.3184 22.4208C27.0059 22.1039 26.6341 21.8518 26.2242 21.6786C25.8143 21.5055 25.3743 21.4149 24.9294 21.4117H24.8235C23.9187 21.4117 23.0509 21.7712 22.411 22.411C21.7712 23.0509 21.4117 23.9187 21.4117 24.8235C21.4117 25.7284 21.7712 26.5962 22.411 27.236C23.0509 27.8758 23.9187 28.2353 24.8235 28.2353C25.2685 28.2462 25.7113 28.1694 26.1266 28.0091C26.5419 27.8489 26.9215 27.6085 27.2438 27.3014C27.5661 26.9944 27.8248 26.627 28.005 26.22C28.1851 25.813 28.2834 25.3744 28.2941 24.9294V24.8235ZM50.1176 38.6824C50.1176 33.0235 46.5176 30.8235 42.9411 30.8235C41.7702 30.7649 40.6042 31.0143 39.5598 31.5469C38.5151 32.0795 37.6284 32.8766 36.9882 33.8589H36.8235V31.2941H31.2941V50.1176H37.1765V40.1058C37.0914 39.0805 37.4145 38.0629 38.0754 37.2744C38.7362 36.4858 39.6815 35.9898 40.7058 35.8942H40.9293C42.8 35.8942 44.1882 37.0707 44.1882 40.0354V50.1176H50.0707L50.1176 38.6824Z" fill="#3D6EC6"/>
</svg>
