<svg width="52" height="52" viewBox="0 0 52 52" fill="none" xmlns="http://www.w3.org/2000/svg">
<path d="M34 50V35.6C34 34.1064 34 33.3597 33.7093 32.7893C33.4536 32.2875 33.0459 31.8797 32.544 31.624C31.9736 31.3333 31.2269 31.3333 29.7333 31.3333H22.2667C20.7731 31.3333 20.0265 31.3333 19.456 31.624C18.9543 31.8797 18.5463 32.2875 18.2906 32.7893C18 33.3597 18 34.1064 18 35.6V50M44.6667 50V10.5333C44.6667 7.5464 44.6667 6.05291 44.0853 4.91205C43.5741 3.90851 42.7581 3.09261 41.7547 2.58131C40.6139 2 39.1203 2 36.1333 2H15.8667C12.8797 2 11.3862 2 10.2454 2.58131C9.24184 3.09261 8.42595 3.90851 7.91464 4.91205C7.33333 6.05291 7.33333 7.5464 7.33333 10.5333V50M50 50H2M19.3333 15.3333H19.36M32.6667 15.3333H32.6933M20.6667 15.3333C20.6667 16.0697 20.0697 16.6667 19.3333 16.6667C18.597 16.6667 18 16.0697 18 15.3333C18 14.597 18.597 14 19.3333 14C20.0697 14 20.6667 14.597 20.6667 15.3333ZM34 15.3333C34 16.0697 33.4029 16.6667 32.6667 16.6667C31.9304 16.6667 31.3333 16.0697 31.3333 15.3333C31.3333 14.597 31.9304 14 32.6667 14C33.4029 14 34 14.597 34 15.3333Z" stroke="#333333" stroke-width="4" stroke-linecap="round" stroke-linejoin="round"/>
</svg>
